# xmcd
#
# Track frame offsets: 
#        150
#        18685
#        35841
#        53367
#        76702
#        91154
#        107908
#        123540
#        142982
#        158880
#        179768
#        197432
#
# Disc length: 2788 seconds
#
# Revision: 0
# Processed by: cddbd v1.5.2PL0 Copyright (c) Steve Scherf et al.
# Submitted via: ExactAudioCopy v0.99pb5
#
DISCID=990ae20c
DTITLE=The Broken Family Band - Please And Thank You
DYEAR=2009
DGENRE=Country
TTITLE0=Please Yourself
TTITLE1=Salivating
TTITLE2=St Albans
TTITLE3=You Did A Bad Thing
TTITLE4=Cinema Vs House
TTITLE5=Borrowed Time
TTITLE6=Mimi
TTITLE7=Don't Bury Us
TTITLE8=Stay Friendly
TTITLE9=Son Of The Man
TTITLE10=The Girls In This Town
TTITLE11=Old Wounds
EXTD=
EXTT0=
EXTT1=
EXTT2=
EXTT3=
EXTT4=
EXTT5=
EXTT6=
EXTT7=
EXTT8=
EXTT9=
EXTT10=
EXTT11=
PLAYORDER=
